<?xml version="1.0" standalone="no"?>
<!DOCTYPE svg PUBLIC "-//W3C//DTD SVG 20010904//EN"
 "http://www.w3.org/TR/2001/REC-SVG-20010904/DTD/svg10.dtd">
<svg version="1.0" xmlns="http://www.w3.org/2000/svg"
 width="749.000000pt" height="751.000000pt" viewBox="0 0 749.000000 751.000000"
 preserveAspectRatio="xMidYMid meet">

<g transform="translate(0.000000,751.000000) scale(0.100000,-0.100000)"
fill="#000000" stroke="none">
<path d="M3455 7133 c-151 -6 -419 -51 -605 -100 -80 -21 -280 -83 -315 -98
-16 -8 -82 -35 -145 -61 -63 -26 -129 -55 -145 -64 -17 -10 -64 -35 -105 -56
-489 -252 -969 -699 -1263 -1175 -99 -160 -168 -289 -232 -434 -15 -33 -33
-74 -41 -92 -8 -17 -14 -37 -14 -45 0 -8 -4 -18 -9 -23 -4 -6 -16 -35 -25 -65
-9 -30 -23 -71 -30 -90 -13 -32 -34 -105 -55 -190 -34 -130 -41 -165 -55 -250
-8 -52 -21 -131 -28 -175 -17 -103 -17 -682 -1 -775 7 -36 17 -99 24 -140 6
-41 15 -95 19 -120 11 -66 59 -252 70 -272 6 -10 10 -26 10 -35 1 -21 34 -120
44 -130 3 -3 6 -13 6 -22 0 -9 7 -29 15 -45 8 -15 15 -33 15 -38 0 -6 7 -26
16 -46 9 -21 20 -46 24 -57 28 -68 130 -270 162 -323 21 -34 38 -65 38 -68 0
-2 8 -17 18 -32 10 -15 49 -74 87 -132 38 -58 72 -107 75 -110 3 -3 28 -34 55
-70 137 -180 433 -482 548 -559 13 -9 67 -48 118 -87 97 -73 188 -134 249
-167 19 -11 37 -22 40 -26 10 -12 265 -143 350 -180 30 -12 69 -29 87 -37 17
-8 37 -14 45 -14 8 0 18 -4 24 -9 5 -4 34 -16 64 -26 30 -10 69 -24 87 -32 17
-7 38 -13 47 -13 8 0 25 -4 38 -9 13 -5 50 -16 83 -24 33 -9 80 -21 105 -27
99 -27 326 -59 500 -71 345 -24 770 15 1050 96 25 7 65 18 90 25 85 24 254 82
315 109 11 5 45 19 75 31 30 12 109 50 175 83 434 219 809 527 1124 922 35 44
76 98 90 120 14 22 28 42 31 45 11 11 70 101 70 107 0 4 6 14 14 22 40 45 211
376 264 511 5 14 15 38 21 55 7 16 21 56 32 90 11 33 24 69 29 80 5 11 16 47
25 80 10 33 23 80 30 105 7 25 16 61 20 80 4 19 14 67 21 105 8 39 19 106 24
150 6 44 15 104 21 133 6 30 11 177 11 335 1 295 -10 424 -54 637 -10 52 -23
116 -28 143 -5 26 -13 62 -19 80 -5 17 -22 73 -37 122 -14 50 -33 107 -40 128
-25 67 -46 121 -64 162 -10 22 -28 65 -41 95 -26 61 -115 236 -148 290 -11 19
-24 42 -27 50 -4 8 -17 29 -29 45 -11 17 -41 61 -64 99 -24 38 -48 74 -52 80
-5 6 -26 34 -46 61 -133 180 -425 486 -569 595 -32 25 -81 63 -109 85 -63 50
-259 180 -345 229 -93 52 -366 186 -379 186 -6 0 -19 4 -29 9 -34 19 -175 71
-191 71 -9 0 -21 4 -26 9 -6 4 -28 13 -50 19 -22 5 -67 18 -100 27 -60 17 -74
21 -215 50 -248 52 -548 72 -865 58z m444 -183 c171 -12 377 -43 506 -76 299
-77 396 -112 670 -244 313 -152 591 -353 855 -620 61 -62 76 -80 171 -195 95
-115 167 -217 233 -325 31 -52 61 -102 66 -110 5 -8 17 -31 26 -50 10 -19 23
-42 29 -50 10 -14 26 -47 98 -210 62 -139 142 -385 172 -530 9 -41 21 -93 26
-115 23 -103 44 -298 54 -520 9 -191 -17 -491 -64 -725 -19 -94 -59 -257 -71
-285 -5 -11 -16 -45 -25 -75 -17 -52 -37 -110 -56 -155 -28 -70 -42 -103 -55
-127 -8 -14 -14 -33 -14 -42 0 -9 -4 -16 -10 -16 -5 0 -10 -5 -10 -11 0 -37
-177 -342 -278 -479 -454 -615 -1056 -1025 -1757 -1198 -380 -95 -699 -120
-1065 -87 -224 20 -284 30 -470 76 -47 11 -103 25 -125 30 -22 5 -49 13 -60
18 -34 14 -89 32 -120 40 -16 5 -55 18 -85 31 -306 125 -532 252 -770 434
-200 152 -407 358 -560 556 -19 25 -40 52 -47 60 -128 160 -300 472 -398 720
-9 25 -21 54 -26 65 -15 38 -61 180 -69 215 -5 19 -16 64 -25 100 -42 163 -46
187 -74 405 -27 218 -23 651 9 820 5 28 17 93 26 145 9 52 28 134 41 182 12
48 23 94 23 102 0 8 6 30 14 48 7 18 21 58 31 88 9 30 20 64 25 75 4 11 15 40
25 65 37 94 147 325 201 420 68 120 252 381 320 455 11 11 59 64 108 118 85
93 260 254 356 327 25 19 47 37 50 40 3 4 48 35 100 70 52 34 107 71 122 81
15 11 30 19 32 19 3 0 34 17 68 38 60 37 220 117 318 160 119 51 420 152 456
152 13 0 35 5 51 11 54 21 270 57 418 69 66 6 129 12 140 14 45 8 256 5 394
-4z"/>
<path d="M3074 6012 c-111 -36 -189 -121 -219 -238 -23 -89 -4 -176 57 -260
107 -149 316 -173 461 -54 34 28 84 105 101 154 54 162 -44 341 -218 400 -62
20 -116 20 -182 -2z"/>
<path d="M4710 5301 c-60 -9 -101 -21 -140 -42 -51 -28 -123 -94 -155 -144
-69 -109 -74 -283 -10 -394 47 -81 195 -196 316 -244 170 -68 318 -168 355
-239 18 -35 18 -106 0 -149 -20 -46 -91 -113 -146 -138 -37 -17 -66 -21 -162
-21 -131 0 -166 8 -292 71 -84 41 -140 50 -150 23 -9 -24 -7 -110 3 -137 13
-33 48 -65 91 -84 209 -90 458 -95 648 -11 110 48 204 167 230 293 11 51 5
200 -9 243 -12 36 -75 133 -95 145 -7 4 -36 27 -65 52 -29 25 -57 45 -61 45
-5 0 -30 10 -56 21 -26 12 -76 35 -112 51 -170 78 -226 112 -274 171 -33 41
-36 49 -36 108 1 138 92 212 260 212 78 1 196 -33 261 -74 57 -36 82 -37 97
-4 15 33 15 117 1 149 -12 27 -67 58 -144 81 -58 18 -273 27 -355 16z"/>
<path d="M2325 5285 c-22 -8 -41 -15 -42 -15 -18 -1 -23 -156 -23 -775 0 -618
2 -703 16 -723 14 -20 24 -22 99 -22 73 0 86 3 95 19 6 13 10 232 10 641 0
564 1 621 16 618 14 -3 36 -47 51 -103 2 -11 27 -65 53 -120 57 -117 105 -235
147 -355 8 -25 21 -58 28 -75 8 -16 34 -84 60 -149 26 -65 53 -128 60 -140 8
-12 21 -42 30 -66 9 -25 25 -65 36 -90 30 -65 37 -82 44 -107 3 -12 15 -33 26
-47 19 -24 27 -26 98 -26 62 0 81 4 93 18 20 21 64 113 85 172 8 25 21 59 28
75 8 17 25 56 39 88 14 32 26 60 26 63 0 9 96 233 129 301 17 34 51 112 77
175 53 130 72 175 84 203 42 96 50 115 50 122 0 5 7 19 16 32 13 18 18 20 25
10 5 -8 9 -287 9 -621 l0 -607 22 -15 c28 -20 168 -22 186 -4 9 9 12 186 12
738 0 399 -3 735 -6 746 -12 45 -112 64 -234 45 -84 -13 -103 -27 -131 -91
-11 -25 -24 -53 -29 -62 -6 -10 -10 -23 -10 -28 0 -13 -36 -98 -51 -120 -5 -8
-28 -53 -50 -100 -72 -152 -96 -208 -153 -355 -26 -66 -62 -151 -80 -190 -19
-38 -51 -106 -72 -150 -54 -114 -62 -118 -93 -42 -12 28 -26 61 -31 72 -5 11
-23 56 -40 100 -38 99 -41 107 -74 175 -14 30 -26 59 -26 63 0 4 -20 49 -44
100 -24 50 -49 108 -56 127 -7 19 -22 58 -35 85 -12 28 -26 61 -30 75 -4 14
-11 30 -15 35 -4 6 -17 37 -28 70 -40 117 -67 177 -89 198 -45 40 -231 60
-308 32z"/>
<path d="M3213 3014 c-10 -4 -13 -69 -13 -274 0 -291 2 -299 55 -286 l25 6 -2
278 -3 277 -25 2 c-14 1 -31 -1 -37 -3z"/>
<path d="M4423 3014 c-10 -4 -13 -69 -13 -274 0 -226 2 -270 15 -280 12 -10
18 -10 30 0 9 8 28 10 52 6 101 -18 116 -18 159 -1 36 14 47 24 64 62 27 61
28 202 2 253 -29 59 -116 87 -188 60 -53 -21 -63 -8 -66 88 -3 79 -5 87 -23
89 -11 1 -26 -1 -32 -3z m200 -239 c48 -36 75 -146 43 -177 -7 -8 -21 -28 -29
-45 -22 -42 -49 -46 -94 -16 -56 36 -63 50 -63 118 0 68 8 83 60 114 41 24 58
26 83 6z"/>
<path d="M1232 2978 c-9 -9 -12 -81 -12 -264 l0 -252 26 -6 c51 -13 54 0 54
202 0 178 1 184 18 169 10 -9 29 -49 42 -89 13 -40 39 -101 57 -136 18 -35 33
-69 33 -76 0 -48 54 -92 84 -67 17 14 76 133 76 154 0 9 4 18 9 22 5 3 19 38
32 77 12 40 30 85 39 100 32 53 40 18 40 -174 l0 -178 24 -6 c14 -3 30 -3 35
1 7 4 11 96 11 271 l0 264 -48 0 c-34 0 -53 -5 -64 -17 -19 -23 -48 -82 -48
-99 0 -8 -26 -68 -57 -134 -68 -142 -84 -151 -114 -60 -10 30 -18 60 -18 67
-1 6 -17 39 -36 72 -19 34 -39 78 -44 97 -15 55 -37 74 -86 74 -22 0 -46 -5
-53 -12z"/>
<path d="M3628 2972 c-15 -9 -32 -27 -37 -40 -14 -30 -14 -118 0 -145 12 -23
74 -87 83 -87 26 0 106 -48 120 -72 17 -27 17 -30 -1 -61 -36 -62 -78 -68
-181 -26 -28 12 -34 12 -42 -1 -19 -29 -10 -50 30 -70 54 -28 155 -28 208 0
60 31 72 50 78 121 5 63 5 64 -33 106 -21 23 -67 56 -103 74 -81 39 -100 56
-100 86 0 61 84 93 148 56 25 -14 32 -15 46 -4 23 19 20 37 -10 60 -22 17 -40
21 -103 20 -51 -1 -85 -6 -103 -17z"/>
<path d="M4860 2961 c0 -21 6 -32 20 -36 29 -9 60 12 60 40 0 22 -4 25 -40 25
-38 0 -40 -2 -40 -29z"/>
<path d="M5776 2934 c-3 -9 -6 -29 -6 -45 0 -22 -7 -32 -24 -41 -38 -17 -40
-37 -6 -56 l30 -17 0 -135 c0 -74 4 -140 8 -146 15 -24 74 -45 115 -42 37 3
42 6 45 31 3 26 -4 32 -35 28 -6 -1 -21 11 -32 25 -18 23 -21 40 -21 128 0
106 7 126 43 126 10 0 27 5 38 11 16 8 18 13 8 25 -6 8 -22 14 -35 14 -30 0
-54 25 -54 59 0 15 -5 32 -12 39 -17 17 -55 15 -62 -4z"/>
<path d="M2525 2855 c-5 -2 -29 -8 -53 -16 -35 -10 -50 -10 -79 0 -58 21 -63
7 -63 -195 0 -186 5 -203 54 -190 23 6 24 8 28 139 4 144 5 148 66 189 23 15
28 15 57 1 18 -9 38 -27 44 -40 6 -13 11 -79 11 -147 0 -130 7 -152 47 -144
16 3 18 17 18 159 0 193 -8 214 -94 239 -14 4 -30 6 -36 5z"/>
<path d="M1987 2838 c-57 -15 -76 -68 -24 -68 12 1 33 7 47 15 40 23 80 18
112 -12 30 -28 36 -64 16 -80 -7 -6 -46 -13 -86 -17 -40 -3 -81 -12 -92 -18
-59 -37 -53 -160 9 -193 35 -18 109 -20 144 -4 18 8 30 8 46 -1 12 -6 31 -8
41 -5 19 6 20 16 20 169 0 156 -1 163 -22 183 -13 11 -33 26 -45 32 -26 13
-113 13 -166 -1z m147 -214 c24 -23 19 -50 -14 -84 -50 -51 -130 -32 -130 31
0 26 6 33 43 49 51 24 81 25 101 4z"/>
<path d="M2864 2839 c-46 -13 -72 -48 -91 -122 -17 -64 -17 -70 0 -134 28
-106 66 -133 187 -133 85 0 133 20 128 53 -2 17 -9 21 -28 19 -14 -1 -53 -3
-88 -5 -62 -2 -64 -1 -98 35 -64 70 -45 86 106 90 l115 3 9 28 c11 31 -6 113
-29 136 -35 35 -141 51 -211 30z m130 -70 c48 -57 27 -89 -59 -89 -59 0 -85
14 -85 45 0 17 11 32 37 50 49 33 76 32 107 -6z"/>
<path d="M3998 2843 c-26 -6 -31 -39 -26 -189 l4 -136 37 -34 c31 -29 44 -34
87 -34 27 0 65 8 84 17 34 16 37 16 56 -2 16 -15 25 -17 38 -9 15 10 17 33 20
165 3 173 -1 214 -25 223 -34 14 -43 -12 -43 -130 0 -113 0 -113 -32 -150 -34
-39 -69 -57 -93 -48 -8 3 -24 21 -35 39 -17 28 -20 49 -20 153 0 106 -2 122
-17 130 -10 5 -26 7 -35 5z"/>
<path d="M5165 2840 c-11 -5 -35 -6 -53 -3 -58 10 -61 1 -57 -193 1 -101 7
-180 13 -186 5 -5 19 -7 31 -3 20 6 21 14 21 108 0 161 20 204 100 214 46 6
57 21 40 52 -11 22 -57 27 -95 11z"/>
<path d="M5378 2834 c-36 -15 -53 -37 -42 -55 8 -14 45 -11 78 6 64 34 136 2
136 -60 0 -39 -3 -40 -104 -50 -58 -6 -74 -12 -98 -35 -23 -24 -28 -37 -28
-77 0 -52 9 -70 50 -97 29 -19 107 -21 145 -4 19 8 31 8 50 0 52 -24 55 -14
55 160 l0 160 -34 34 c-32 32 -38 34 -102 33 -38 0 -86 -7 -106 -15z m156
-200 c10 -4 16 -18 16 -39 0 -55 -74 -100 -126 -76 -19 8 -24 18 -24 49 0 33
4 41 33 55 34 17 75 21 101 11z"/>
<path d="M6069 2839 c-32 -12 -49 -47 -49 -102 1 -54 22 -79 91 -108 30 -12
60 -27 67 -32 17 -13 15 -52 -4 -71 -19 -20 -80 -20 -114 -1 -38 22 -50 18
-50 -14 0 -44 31 -61 109 -61 46 0 72 5 96 20 36 23 45 43 45 112 0 52 -15 67
-100 103 -52 22 -70 40 -70 72 0 28 33 47 71 39 94 -19 89 -20 89 3 0 42 -109
66 -181 40z"/>
<path d="M4874 2830 c-12 -12 -8 -360 5 -373 5 -5 18 -6 30 -2 19 6 20 15 23
176 2 94 0 179 -4 190 -8 20 -38 25 -54 9z"/>
</g>
</svg>
